<svg xmlns="http://www.w3.org/2000/svg" viewBox="0 0 100.12 89.21"><defs><style>.cls-1{fill:#1b69b2;}</style></defs><g id="Ebene_2" data-name="Ebene 2"><g id="Ebene_1-2" data-name="Ebene 1"><path class="cls-1" d="M85.29,56.92A10.77,10.77,0,1,1,74.52,46.15,10.77,10.77,0,0,1,85.29,56.92Zm7.77,32.29a3,3,0,0,0,3-3,15,15,0,0,0-15-15H67.94A15,15,0,0,0,53,86.22a3,3,0,0,0,3,3ZM25.46,46.15A10.77,10.77,0,1,0,36.23,56.92,10.77,10.77,0,0,0,25.46,46.15ZM44,89.21a3,3,0,0,0,3-3,15,15,0,0,0-15-15H18.88a15,15,0,0,0-14.95,15,3,3,0,0,0,3,3ZM62.44,67A15.66,15.66,0,0,1,59,59.64a16.14,16.14,0,0,0-2.43-.21H43.41a16,16,0,0,0-2.42.21A15.77,15.77,0,0,1,37.54,67,20,20,0,0,1,49.91,77.37h.16A20,20,0,0,1,62.44,67ZM50,55.84A10.77,10.77,0,1,0,39.23,45.08,10.77,10.77,0,0,0,50,55.84ZM8.25,48.34,50.1,11.72,91.86,48.34a5,5,0,0,0,7-.51,5.1,5.1,0,0,0-.5-7.12l-45-39.48a5,5,0,0,0-6.53,0L1.72,40.71a5.08,5.08,0,0,0-.5,7.12,4.95,4.95,0,0,0,7,.51Z"/></g></g></svg>