<svg xmlns="http://www.w3.org/2000/svg" viewBox="0 0 100 79.36"><defs><style>.cls-1{fill:#1b69b2;}</style></defs><g id="Ebene_2" data-name="Ebene 2"><g id="Ebene_1-2" data-name="Ebene 1"><path class="cls-1" d="M59.89,43.05a7.8,7.8,0,0,0-2.22-5l-24-22a5.56,5.56,0,0,0-7.37,0l-24,22a7.86,7.86,0,0,0-2.23,5L0,72.36a7,7,0,0,0,7,7H53a7,7,0,0,0,7-7ZM37.6,54.44a2.91,2.91,0,0,1-2.91,2.9H25.32a2.91,2.91,0,0,1-2.91-2.9V45.06a2.92,2.92,0,0,1,2.91-2.9h9.37a2.92,2.92,0,0,1,2.91,2.9ZM70.21,16.75a1.91,1.91,0,0,0-1.9-1.91H62.17a1.91,1.91,0,0,0-1.9,1.91v6.13a1.91,1.91,0,0,0,1.9,1.9h6.14a1.91,1.91,0,0,0,1.9-1.9Zm19.72,0A1.91,1.91,0,0,0,88,14.84H81.9A1.91,1.91,0,0,0,80,16.75v6.13a1.9,1.9,0,0,0,1.9,1.9H88a1.9,1.9,0,0,0,1.9-1.9Zm0,15A1.91,1.91,0,0,0,88,29.86H81.9A1.91,1.91,0,0,0,80,31.77V37.9a1.9,1.9,0,0,0,1.9,1.9H88a1.9,1.9,0,0,0,1.9-1.9Zm0,15A1.91,1.91,0,0,0,88,44.88H81.9A1.91,1.91,0,0,0,80,46.79v6.13a1.9,1.9,0,0,0,1.9,1.9H88a1.9,1.9,0,0,0,1.9-1.9ZM100,7V72.36a7,7,0,0,1-7,7H64a12.84,12.84,0,0,0,2.05-7l-.07-17.51h2.37a1.91,1.91,0,0,0,1.9-1.9V46.79a1.91,1.91,0,0,0-1.9-1.91H65.9V43a11.9,11.9,0,0,0-.5-3.22h2.92a1.91,1.91,0,0,0,1.9-1.9V31.77a1.91,1.91,0,0,0-1.9-1.91H62.17a1.91,1.91,0,0,0-1.9,1.91v.48L50,22.82V7a7,7,0,0,1,7-7H93A7,7,0,0,1,100,7Z"/></g></g></svg>