<svg xmlns="http://www.w3.org/2000/svg" viewBox="0 0 99.88 89.01"><defs><style>.cls-1{fill:#1b69b2;}</style></defs><g id="Ebene_2" data-name="Ebene 2"><g id="Ebene_1-2" data-name="Ebene 1"><path class="cls-1" d="M35,16v16.9l-6.35,3.81A7.47,7.47,0,0,0,25,43.16V89H40V74a10,10,0,0,1,20,0V89h15V43.16a7.48,7.48,0,0,0-3.63-6.43l-6.36-3.81V16a5,5,0,0,0-1.46-3.53L51.7.73a2.49,2.49,0,0,0-3.52,0L36.43,12.48A5,5,0,0,0,35,16ZM3.89,50.51A7.49,7.49,0,0,0,0,57.08V81.52A7.5,7.5,0,0,0,7.49,89H20V41.66ZM92.39,89a7.49,7.49,0,0,0,7.49-7.49V57.08A7.51,7.51,0,0,0,96,50.51L79.91,41.66V89Z"/></g></g></svg>