<svg xmlns="http://www.w3.org/2000/svg" viewBox="0 0 100.2 89.08"><defs><style>.cls-1{fill:#1b69b2;}</style></defs><g id="Ebene_2" data-name="Ebene 2"><g id="Ebene_1-2" data-name="Ebene 1"><path class="cls-1" d="M100.18,44.45A5.63,5.63,0,0,1,94.61,50H89l.12,27.87a13.33,13.33,0,0,1-.08,1.41v2.8a7,7,0,0,1-7,7H79.33a5.43,5.43,0,0,1-.57,0c-.24,0-.49,0-.73,0H68.2a7,7,0,0,1-7-7V66.81a5.57,5.57,0,0,0-5.57-5.57H44.54A5.57,5.57,0,0,0,39,66.81V82.12a7,7,0,0,1-7,7H22.29c-.26,0-.53,0-.79,0s-.41,0-.62,0H18.09a7,7,0,0,1-7-7V62.63a4.1,4.1,0,0,1,0-.49V50H5.57A5.51,5.51,0,0,1,0,44.45a5.63,5.63,0,0,1,1.74-4.17L46.35,1.39A5,5,0,0,1,50.18,0a5.8,5.8,0,0,1,3.65,1.22L98.26,40.28A4.77,4.77,0,0,1,100.18,44.45Z"/></g></g></svg>