<svg xmlns="http://www.w3.org/2000/svg" viewBox="0 0 100.2 89.08"><defs><style>.cls-1{fill:#1b69b2;}</style></defs><g id="Ebene_2" data-name="Ebene 2"><g id="Ebene_1-2" data-name="Ebene 1"><path class="cls-1" d="M98.26,40.28,53.83,1.22A5.8,5.8,0,0,0,50.18,0a5,5,0,0,0-3.83,1.39L1.74,40.28A5.63,5.63,0,0,0,0,44.45,5.51,5.51,0,0,0,5.57,50h5.58l0,32.08a7,7,0,0,0,7,7h64a7,7,0,0,0,7-7L89,50h5.57a5.63,5.63,0,0,0,5.57-5.59A4.77,4.77,0,0,0,98.26,40.28ZM58.92,42a3.61,3.61,0,0,1,0,7.21H42.72q0,.45,0,.9v1.81c0,.3,0,.61,0,.9h16.2a3.61,3.61,0,0,1,0,7.21H44.73a17.15,17.15,0,0,0,15.09,9h2.7a3.61,3.61,0,0,1,0,7.22h-2.7A24.35,24.35,0,0,1,36.87,60H33.68a3.61,3.61,0,1,1,0-7.21h1.81c0-.31,0-.6,0-.9V50.1c0-.3,0-.59,0-.9H33.68a3.61,3.61,0,1,1,0-7.21h3.19a24.34,24.34,0,0,1,23-16.22h2.7a3.61,3.61,0,1,1,0,7.21h-2.7a17.15,17.15,0,0,0-15.09,9Z"/></g></g></svg>